<mxfile modified="2023-04-13T08:30:58.071Z" host="app.diagrams.net" agent="Mozilla/5.0 (Windows NT 10.0; Win64; x64) AppleWebKit/537.36 (KHTML, like Gecko) Chrome/111.0.0.0 Safari/537.36" etag="lcunTCEbBPzpJfmUM0gd" version="21.1.4" type="github" pages="2">
  <diagram id="Ht1M8jgEwFfnCIfOTk4-" name="Page-1">
    <mxGraphModel dx="986" dy="589" grid="0" gridSize="10" guides="1" tooltips="1" connect="1" arrows="1" fold="1" page="1" pageScale="1" pageWidth="1169" pageHeight="827" math="0" shadow="0">
      <root>
        <mxCell id="0" />
        <mxCell id="1" parent="0" />
        <mxCell id="qDzXl6AaSdnfSaJlsPO--55" value="" style="edgeStyle=orthogonalEdgeStyle;rounded=0;orthogonalLoop=1;jettySize=auto;html=1;" parent="1" source="UEzPUAAOIrF-is8g5C7q-110" target="qDzXl6AaSdnfSaJlsPO--54" edge="1">
          <mxGeometry relative="1" as="geometry" />
        </mxCell>
        <mxCell id="UEzPUAAOIrF-is8g5C7q-110" value="data lake console" style="outlineConnect=0;dashed=0;verticalLabelPosition=bottom;verticalAlign=top;align=center;html=1;fontSize=12;fontStyle=0;aspect=fixed;shape=mxgraph.aws4.illustration_notification;pointerEvents=1;labelBackgroundColor=#ffffff;fillColor=#60a917;strokeColor=#2D7600;fontColor=#ffffff;" parent="1" vertex="1">
          <mxGeometry x="186" y="197" width="100" height="81" as="geometry" />
        </mxCell>
        <mxCell id="qDzXl6AaSdnfSaJlsPO--38" value="" style="group" parent="1" vertex="1" connectable="0">
          <mxGeometry x="812" y="158" width="120" height="95" as="geometry" />
        </mxCell>
        <mxCell id="qDzXl6AaSdnfSaJlsPO--25" value="" style="verticalLabelPosition=bottom;verticalAlign=top;html=1;shape=mxgraph.basic.polygon;polyCoords=[[0.25,0],[0.75,0],[1,0.25],[1,0.75],[0.75,1],[0.25,1],[0,0.75],[0,0.25]];polyline=0;fillColor=#CFFFBA;" parent="qDzXl6AaSdnfSaJlsPO--38" vertex="1">
          <mxGeometry width="119.99999999999999" height="95" as="geometry" />
        </mxCell>
        <mxCell id="qDzXl6AaSdnfSaJlsPO--26" value="" style="html=1;overflow=block;blockSpacing=1;whiteSpace=wrap;shape=image;fontSize=13;spacing=0;strokeColor=none;strokeOpacity=100;strokeWidth=0;image=https://images.lucid.app/images/5300f3ca-2b64-4451-aa08-53054fb2879f/content;imageAspect=0;lucidId=Dx_LhodISU7r;" parent="qDzXl6AaSdnfSaJlsPO--38" vertex="1">
          <mxGeometry x="14.999999999999998" y="11.990291262135921" width="90" height="26.74757281553398" as="geometry" />
        </mxCell>
        <mxCell id="qDzXl6AaSdnfSaJlsPO--27" value="" style="html=1;overflow=block;blockSpacing=1;whiteSpace=wrap;shape=image;fontSize=13;spacing=0;strokeColor=none;strokeOpacity=100;strokeWidth=0;image=https://images.lucid.app/images/5300f3ca-2b64-4451-aa08-53054fb2879f/content;imageAspect=0;lucidId=Dx_LhodISU7r;" parent="qDzXl6AaSdnfSaJlsPO--38" vertex="1">
          <mxGeometry x="14.999999999999998" y="56.03155339805826" width="90" height="26.74757281553398" as="geometry" />
        </mxCell>
        <mxCell id="qDzXl6AaSdnfSaJlsPO--52" value="" style="sketch=0;outlineConnect=0;fontColor=#232F3E;gradientColor=none;fillColor=#B0084D;strokeColor=none;dashed=0;verticalLabelPosition=bottom;verticalAlign=top;align=center;html=1;fontSize=12;fontStyle=0;aspect=fixed;pointerEvents=1;shape=mxgraph.aws4.queue;" parent="qDzXl6AaSdnfSaJlsPO--38" vertex="1">
          <mxGeometry x="40.996363636363675" y="35.76470588235294" width="38.018181818181816" height="22.909090909090907" as="geometry" />
        </mxCell>
        <mxCell id="qDzXl6AaSdnfSaJlsPO--39" value="" style="group" parent="1" vertex="1" connectable="0">
          <mxGeometry x="456" y="170" width="60" height="140" as="geometry" />
        </mxCell>
        <mxCell id="qDzXl6AaSdnfSaJlsPO--37" value="" style="group;fillColor=#99FFFF;container=0;" parent="qDzXl6AaSdnfSaJlsPO--39" vertex="1" connectable="0">
          <mxGeometry width="60" height="140" as="geometry" />
        </mxCell>
        <mxCell id="qDzXl6AaSdnfSaJlsPO--61" style="edgeStyle=orthogonalEdgeStyle;rounded=0;orthogonalLoop=1;jettySize=auto;html=1;" parent="qDzXl6AaSdnfSaJlsPO--39" source="qDzXl6AaSdnfSaJlsPO--33" edge="1">
          <mxGeometry relative="1" as="geometry">
            <mxPoint x="160" y="70" as="targetPoint" />
          </mxGeometry>
        </mxCell>
        <mxCell id="qDzXl6AaSdnfSaJlsPO--33" value="Nginx" style="rounded=0;whiteSpace=wrap;html=1;container=0;fillColor=#E6FFCC;" parent="qDzXl6AaSdnfSaJlsPO--39" vertex="1">
          <mxGeometry width="60" height="140" as="geometry" />
        </mxCell>
        <mxCell id="qDzXl6AaSdnfSaJlsPO--34" value="" style="html=1;overflow=block;blockSpacing=1;whiteSpace=wrap;shape=image;fontSize=13;spacing=0;strokeColor=none;strokeOpacity=100;strokeWidth=0;image=https://images.lucid.app/images/f06174b3-3234-4e07-870f-1be48ffbf857/content;imageAspect=0;lucidId=fR_Ll.q9rQMU;container=0;" parent="qDzXl6AaSdnfSaJlsPO--39" vertex="1">
          <mxGeometry x="5.5" y="77.75" width="49" height="53" as="geometry" />
        </mxCell>
        <mxCell id="qDzXl6AaSdnfSaJlsPO--35" value="" style="html=1;overflow=block;blockSpacing=1;whiteSpace=wrap;shape=image;fontSize=13;spacing=0;strokeColor=none;strokeOpacity=100;strokeWidth=0;image=https://images.lucid.app/images/f06174b3-3234-4e07-870f-1be48ffbf857/content;imageAspect=0;lucidId=fR_Ll.q9rQMU;container=0;" parent="qDzXl6AaSdnfSaJlsPO--39" vertex="1">
          <mxGeometry x="5.5" y="10" width="49" height="42.5" as="geometry" />
        </mxCell>
        <mxCell id="qDzXl6AaSdnfSaJlsPO--40" value="" style="group" parent="1" vertex="1" connectable="0">
          <mxGeometry x="570" y="170" width="95" height="150" as="geometry" />
        </mxCell>
        <mxCell id="qDzXl6AaSdnfSaJlsPO--20" value="" style="group;fillColor=#99CCFF;container=0;" parent="qDzXl6AaSdnfSaJlsPO--40" vertex="1" connectable="0">
          <mxGeometry width="95" height="150" as="geometry" />
        </mxCell>
        <mxCell id="qDzXl6AaSdnfSaJlsPO--15" value="tomcat" style="rounded=0;whiteSpace=wrap;html=1;fillColor=#FFCC99;" parent="qDzXl6AaSdnfSaJlsPO--40" vertex="1">
          <mxGeometry width="95" height="150" as="geometry" />
        </mxCell>
        <mxCell id="qDzXl6AaSdnfSaJlsPO--16" value="" style="html=1;overflow=block;blockSpacing=1;whiteSpace=wrap;shape=image;fontSize=13;spacing=0;strokeColor=none;strokeOpacity=100;strokeWidth=0;image=https://images.lucid.app/images/cee71914-ab3a-496f-8bbd-726f49341dd3/content;imageAspect=0;lucidId=2N_LqRLpsB~F;" parent="qDzXl6AaSdnfSaJlsPO--40" vertex="1">
          <mxGeometry x="10" y="10" width="75" height="53" as="geometry" />
        </mxCell>
        <mxCell id="qDzXl6AaSdnfSaJlsPO--17" value="" style="html=1;overflow=block;blockSpacing=1;whiteSpace=wrap;shape=image;fontSize=13;spacing=0;strokeColor=none;strokeOpacity=100;strokeWidth=0;image=https://images.lucid.app/images/cee71914-ab3a-496f-8bbd-726f49341dd3/content;imageAspect=0;lucidId=2N_LqRLpsB~F;" parent="qDzXl6AaSdnfSaJlsPO--40" vertex="1">
          <mxGeometry x="10" y="97" width="75" height="53" as="geometry" />
        </mxCell>
        <mxCell id="qDzXl6AaSdnfSaJlsPO--48" value="" style="image;sketch=0;aspect=fixed;html=1;points=[];align=center;fontSize=12;image=img/lib/mscae/Azure_Database_for_MySQL_servers.svg;" parent="1" vertex="1">
          <mxGeometry x="728" y="403" width="68.4" height="90" as="geometry" />
        </mxCell>
        <mxCell id="qDzXl6AaSdnfSaJlsPO--56" style="edgeStyle=orthogonalEdgeStyle;rounded=0;orthogonalLoop=1;jettySize=auto;html=1;entryX=0;entryY=0.5;entryDx=0;entryDy=0;" parent="1" source="qDzXl6AaSdnfSaJlsPO--54" target="qDzXl6AaSdnfSaJlsPO--35" edge="1">
          <mxGeometry relative="1" as="geometry">
            <Array as="points">
              <mxPoint x="391" y="201" />
            </Array>
          </mxGeometry>
        </mxCell>
        <mxCell id="qDzXl6AaSdnfSaJlsPO--57" style="edgeStyle=orthogonalEdgeStyle;rounded=0;orthogonalLoop=1;jettySize=auto;html=1;entryX=0;entryY=0.75;entryDx=0;entryDy=0;" parent="1" source="qDzXl6AaSdnfSaJlsPO--54" target="qDzXl6AaSdnfSaJlsPO--34" edge="1">
          <mxGeometry relative="1" as="geometry">
            <Array as="points">
              <mxPoint x="391" y="288" />
            </Array>
          </mxGeometry>
        </mxCell>
        <mxCell id="qDzXl6AaSdnfSaJlsPO--54" value="" style="image;sketch=0;aspect=fixed;html=1;points=[];align=center;fontSize=12;image=img/lib/mscae/Load_Balancer_feature.svg;" parent="1" vertex="1">
          <mxGeometry x="366" y="215" width="50" height="50" as="geometry" />
        </mxCell>
        <mxCell id="qDzXl6AaSdnfSaJlsPO--62" style="edgeStyle=orthogonalEdgeStyle;rounded=0;orthogonalLoop=1;jettySize=auto;html=1;" parent="1" source="qDzXl6AaSdnfSaJlsPO--15" target="qDzXl6AaSdnfSaJlsPO--25" edge="1">
          <mxGeometry relative="1" as="geometry" />
        </mxCell>
        <mxCell id="qDzXl6AaSdnfSaJlsPO--63" value="" style="group" parent="1" vertex="1" connectable="0">
          <mxGeometry x="698" y="293" width="140" height="57" as="geometry" />
        </mxCell>
        <mxCell id="qDzXl6AaSdnfSaJlsPO--42" value="" style="rounded=0;whiteSpace=wrap;html=1;fillColor=#e1d5e7;strokeColor=#9673a6;" parent="qDzXl6AaSdnfSaJlsPO--63" vertex="1">
          <mxGeometry width="140" height="57" as="geometry" />
        </mxCell>
        <mxCell id="qDzXl6AaSdnfSaJlsPO--50" value="" style="outlineConnect=0;dashed=0;verticalLabelPosition=bottom;verticalAlign=top;align=center;html=1;shape=mxgraph.aws3.memcached;fillColor=#2E73B8;gradientColor=none;" parent="qDzXl6AaSdnfSaJlsPO--63" vertex="1">
          <mxGeometry x="85.79999999999995" y="4" width="40" height="48" as="geometry" />
        </mxCell>
        <mxCell id="qDzXl6AaSdnfSaJlsPO--65" style="edgeStyle=orthogonalEdgeStyle;rounded=0;orthogonalLoop=1;jettySize=auto;html=1;exitX=1;exitY=0.5;exitDx=0;exitDy=0;exitPerimeter=0;entryX=0;entryY=0.5;entryDx=0;entryDy=0;entryPerimeter=0;shape=link;" parent="qDzXl6AaSdnfSaJlsPO--63" source="qDzXl6AaSdnfSaJlsPO--51" target="qDzXl6AaSdnfSaJlsPO--50" edge="1">
          <mxGeometry relative="1" as="geometry" />
        </mxCell>
        <mxCell id="qDzXl6AaSdnfSaJlsPO--51" value="" style="outlineConnect=0;dashed=0;verticalLabelPosition=bottom;verticalAlign=top;align=center;html=1;shape=mxgraph.aws3.memcached;fillColor=#2E73B8;gradientColor=none;" parent="qDzXl6AaSdnfSaJlsPO--63" vertex="1">
          <mxGeometry x="15.799999999999955" y="4" width="40" height="48" as="geometry" />
        </mxCell>
        <mxCell id="qDzXl6AaSdnfSaJlsPO--64" style="edgeStyle=orthogonalEdgeStyle;rounded=0;orthogonalLoop=1;jettySize=auto;html=1;" parent="1" source="qDzXl6AaSdnfSaJlsPO--25" target="qDzXl6AaSdnfSaJlsPO--42" edge="1">
          <mxGeometry relative="1" as="geometry" />
        </mxCell>
        <mxCell id="qDzXl6AaSdnfSaJlsPO--68" style="edgeStyle=orthogonalEdgeStyle;rounded=0;orthogonalLoop=1;jettySize=auto;html=1;" parent="1" source="qDzXl6AaSdnfSaJlsPO--51" target="qDzXl6AaSdnfSaJlsPO--48" edge="1">
          <mxGeometry relative="1" as="geometry" />
        </mxCell>
        <mxCell id="qDzXl6AaSdnfSaJlsPO--69" style="edgeStyle=orthogonalEdgeStyle;rounded=0;orthogonalLoop=1;jettySize=auto;html=1;entryX=0.587;entryY=0.002;entryDx=0;entryDy=0;entryPerimeter=0;" parent="1" source="qDzXl6AaSdnfSaJlsPO--50" target="qDzXl6AaSdnfSaJlsPO--48" edge="1">
          <mxGeometry relative="1" as="geometry" />
        </mxCell>
        <mxCell id="9_Hx55ZVOrY66UWeNCDc-1" value="vProfil general archietecture&amp;nbsp;" style="text;html=1;align=center;verticalAlign=middle;resizable=0;points=[];autosize=1;fillColor=#f5f5f5;fontColor=#333333;strokeColor=#666666;labelBackgroundColor=none;labelBorderColor=none;spacing=3;fontStyle=1" vertex="1" parent="1">
          <mxGeometry x="455" y="102" width="185" height="28" as="geometry" />
        </mxCell>
      </root>
    </mxGraphModel>
  </diagram>
  <diagram id="Fu_wNLVqS7WkkFUinSUa" name="Page-2">
    <mxGraphModel dx="986" dy="589" grid="0" gridSize="10" guides="1" tooltips="1" connect="1" arrows="1" fold="1" page="1" pageScale="1" pageWidth="827" pageHeight="1169" math="0" shadow="0">
      <root>
        <mxCell id="0" />
        <mxCell id="1" parent="0" />
        <mxCell id="zzdkhWfqqtoj1ztilGZg-1" value="" style="edgeStyle=orthogonalEdgeStyle;rounded=0;orthogonalLoop=1;jettySize=auto;html=1;" edge="1" parent="1" source="zzdkhWfqqtoj1ztilGZg-2" target="zzdkhWfqqtoj1ztilGZg-22">
          <mxGeometry relative="1" as="geometry" />
        </mxCell>
        <mxCell id="zzdkhWfqqtoj1ztilGZg-2" value="data lake console" style="outlineConnect=0;dashed=0;verticalLabelPosition=bottom;verticalAlign=top;align=center;html=1;fontSize=12;fontStyle=0;aspect=fixed;shape=mxgraph.aws4.illustration_notification;pointerEvents=1;labelBackgroundColor=#ffffff;fillColor=#60a917;strokeColor=#2D7600;fontColor=#ffffff;" vertex="1" parent="1">
          <mxGeometry x="119" y="195" width="100" height="81" as="geometry" />
        </mxCell>
        <mxCell id="zzdkhWfqqtoj1ztilGZg-19" value="" style="image;sketch=0;aspect=fixed;html=1;points=[];align=center;fontSize=12;image=img/lib/mscae/Azure_Database_for_MySQL_servers.svg;" vertex="1" parent="1">
          <mxGeometry x="585.9" y="381" width="44.2" height="58.16" as="geometry" />
        </mxCell>
        <mxCell id="kEHmJOIidlo44beS5Q9--8" value="" style="edgeStyle=orthogonalEdgeStyle;rounded=0;orthogonalLoop=1;jettySize=auto;html=1;" edge="1" parent="1" source="zzdkhWfqqtoj1ztilGZg-22" target="zzdkhWfqqtoj1ztilGZg-18">
          <mxGeometry relative="1" as="geometry" />
        </mxCell>
        <mxCell id="zzdkhWfqqtoj1ztilGZg-22" value="" style="image;sketch=0;aspect=fixed;html=1;points=[];align=center;fontSize=12;image=img/lib/mscae/Load_Balancer_feature.svg;" vertex="1" parent="1">
          <mxGeometry x="289" y="210.5" width="50" height="50" as="geometry" />
        </mxCell>
        <mxCell id="zzdkhWfqqtoj1ztilGZg-23" style="edgeStyle=orthogonalEdgeStyle;rounded=0;orthogonalLoop=1;jettySize=auto;html=1;" edge="1" parent="1" source="zzdkhWfqqtoj1ztilGZg-16" target="zzdkhWfqqtoj1ztilGZg-4">
          <mxGeometry relative="1" as="geometry" />
        </mxCell>
        <mxCell id="zzdkhWfqqtoj1ztilGZg-32" value="aws vProfil archietecture&amp;nbsp;" style="text;html=1;align=center;verticalAlign=middle;resizable=0;points=[];autosize=1;fillColor=#f5f5f5;fontColor=#333333;strokeColor=#666666;labelBackgroundColor=none;labelBorderColor=none;spacing=3;fontStyle=1" vertex="1" parent="1">
          <mxGeometry x="347" y="144" width="165" height="28" as="geometry" />
        </mxCell>
        <mxCell id="kEHmJOIidlo44beS5Q9--7" value="" style="edgeStyle=orthogonalEdgeStyle;rounded=0;orthogonalLoop=1;jettySize=auto;html=1;" edge="1" parent="1" source="zzdkhWfqqtoj1ztilGZg-5" target="kEHmJOIidlo44beS5Q9--3">
          <mxGeometry relative="1" as="geometry" />
        </mxCell>
        <mxCell id="kEHmJOIidlo44beS5Q9--6" value="" style="edgeStyle=orthogonalEdgeStyle;rounded=0;orthogonalLoop=1;jettySize=auto;html=1;" edge="1" parent="1" source="kEHmJOIidlo44beS5Q9--3" target="zzdkhWfqqtoj1ztilGZg-19">
          <mxGeometry relative="1" as="geometry" />
        </mxCell>
        <mxCell id="kEHmJOIidlo44beS5Q9--3" value="" style="outlineConnect=0;dashed=0;verticalLabelPosition=bottom;verticalAlign=top;align=center;html=1;shape=mxgraph.aws3.memcached;fillColor=#2E73B8;gradientColor=none;" vertex="1" parent="1">
          <mxGeometry x="588" y="293" width="40" height="48" as="geometry" />
        </mxCell>
        <mxCell id="kEHmJOIidlo44beS5Q9--9" value="" style="group" vertex="1" connectable="0" parent="1">
          <mxGeometry x="389" y="201" width="92" height="69" as="geometry" />
        </mxCell>
        <mxCell id="zzdkhWfqqtoj1ztilGZg-16" value="tomcat" style="rounded=0;whiteSpace=wrap;html=1;fillColor=#FFCC99;container=0;" vertex="1" parent="kEHmJOIidlo44beS5Q9--9">
          <mxGeometry width="92" height="69" as="geometry" />
        </mxCell>
        <mxCell id="zzdkhWfqqtoj1ztilGZg-18" value="" style="html=1;overflow=block;blockSpacing=1;whiteSpace=wrap;shape=image;fontSize=13;spacing=0;strokeColor=none;strokeOpacity=100;strokeWidth=0;image=https://images.lucid.app/images/cee71914-ab3a-496f-8bbd-726f49341dd3/content;imageAspect=0;lucidId=2N_LqRLpsB~F;container=0;" vertex="1" parent="kEHmJOIidlo44beS5Q9--9">
          <mxGeometry x="9" y="5" width="75" height="59.79" as="geometry" />
        </mxCell>
        <mxCell id="kEHmJOIidlo44beS5Q9--10" value="" style="group" vertex="1" connectable="0" parent="1">
          <mxGeometry x="548" y="211" width="120" height="37" as="geometry" />
        </mxCell>
        <mxCell id="zzdkhWfqqtoj1ztilGZg-4" value="" style="verticalLabelPosition=bottom;verticalAlign=top;html=1;shape=mxgraph.basic.polygon;polyCoords=[[0.25,0],[0.75,0],[1,0.25],[1,0.75],[0.75,1],[0.25,1],[0,0.75],[0,0.25]];polyline=0;fillColor=#CFFFBA;" vertex="1" parent="kEHmJOIidlo44beS5Q9--10">
          <mxGeometry width="120" height="37" as="geometry" />
        </mxCell>
        <mxCell id="zzdkhWfqqtoj1ztilGZg-5" value="" style="html=1;overflow=block;blockSpacing=1;whiteSpace=wrap;shape=image;fontSize=13;spacing=0;strokeColor=none;strokeOpacity=100;strokeWidth=0;image=https://images.lucid.app/images/5300f3ca-2b64-4451-aa08-53054fb2879f/content;imageAspect=0;lucidId=Dx_LhodISU7r;" vertex="1" parent="kEHmJOIidlo44beS5Q9--10">
          <mxGeometry x="15" y="6.560000000000002" width="90" height="23.88" as="geometry" />
        </mxCell>
        <mxCell id="kEHmJOIidlo44beS5Q9--11" value="app01.vprofile.in" style="text;html=1;align=center;verticalAlign=middle;resizable=0;points=[];autosize=1;strokeColor=none;fillColor=none;" vertex="1" parent="1">
          <mxGeometry x="382" y="175" width="106" height="26" as="geometry" />
        </mxCell>
        <mxCell id="kEHmJOIidlo44beS5Q9--12" value="db01.vprofile.in" style="text;html=1;align=center;verticalAlign=middle;resizable=0;points=[];autosize=1;strokeColor=none;fillColor=none;" vertex="1" parent="1">
          <mxGeometry x="563" y="436" width="99" height="26" as="geometry" />
        </mxCell>
        <mxCell id="kEHmJOIidlo44beS5Q9--13" value="rmq01.vprofile.in" style="text;html=1;align=center;verticalAlign=middle;resizable=0;points=[];autosize=1;strokeColor=none;fillColor=none;" vertex="1" parent="1">
          <mxGeometry x="555" y="182" width="107" height="26" as="geometry" />
        </mxCell>
        <mxCell id="kEHmJOIidlo44beS5Q9--14" value="mc01.vprofile.in" style="text;html=1;align=center;verticalAlign=middle;resizable=0;points=[];autosize=1;strokeColor=none;fillColor=none;" vertex="1" parent="1">
          <mxGeometry x="632" y="304" width="102" height="26" as="geometry" />
        </mxCell>
        <mxCell id="kEHmJOIidlo44beS5Q9--15" value="ELB" style="text;html=1;align=center;verticalAlign=middle;resizable=0;points=[];autosize=1;strokeColor=none;fillColor=none;" vertex="1" parent="1">
          <mxGeometry x="289" y="264" width="41" height="26" as="geometry" />
        </mxCell>
      </root>
    </mxGraphModel>
  </diagram>
</mxfile>
